<svg width="20" height="23" viewBox="0 0 20 23" fill="none" xmlns="http://www.w3.org/2000/svg">
<path d="M12 20C12 20.5304 11.7893 21.0391 11.4142 21.4142C11.0391 21.7893 10.5304 22 10 22C9.46957 22 8.96086 21.7893 8.58579 21.4142C8.21071 21.0391 8 20.5304 8 20M3 10V15.5858C3 15.851 2.89464 16.1054 2.70711 16.2929L1.20711 17.7929C1.0745 17.9255 1 18.1054 1 18.2929V18.2929C1 18.6834 1.31658 19 1.70711 19H18.2929C18.6834 19 19 18.6834 19 18.2929V18.2929C19 18.1054 18.9255 17.9255 18.7929 17.7929L17.2929 16.2929C17.1054 16.1054 17 15.851 17 15.5858V10C17 6.9971 15.0952 4.34139 12.2763 3.3781C12.1135 3.32248 12 3.172 12 3V3C12 2.46957 11.7893 1.96086 11.4142 1.58579C11.0391 1.21071 10.5304 1 10 1C9.46957 1 8.96086 1.21071 8.58579 1.58579C8.21071 1.96086 8 2.46957 8 3V3C8 3.172 7.88647 3.32248 7.7237 3.3781C4.90482 4.34139 3 6.9971 3 10Z" stroke="#032757" stroke-width="2" stroke-linecap="round"/>
</svg>
