<svg width="25" height="24" viewBox="0 0 25 24" fill="none" xmlns="http://www.w3.org/2000/svg">
<path d="M14 21C14 21.5304 13.7893 22.0391 13.4142 22.4142C13.0391 22.7893 12.5304 23 12 23C11.4696 23 10.9609 22.7893 10.5858 22.4142C10.2107 22.0391 10 21.5304 10 21M5 11V16.5858C5 16.851 4.89464 17.1054 4.70711 17.2929L3.20711 18.7929C3.0745 18.9255 3 19.1054 3 19.2929V19.2929C3 19.6834 3.31658 20 3.70711 20H20.2929C20.6834 20 21 19.6834 21 19.2929V19.2929C21 19.1054 20.9255 18.9255 20.7929 18.7929L19.2929 17.2929C19.1054 17.1054 19 16.851 19 16.5858V11C19 7.9971 17.0952 5.34139 14.2763 4.3781C14.1135 4.32248 14 4.172 14 4V4C14 3.46957 13.7893 2.96086 13.4142 2.58579C13.0391 2.21071 12.5304 2 12 2C11.4696 2 10.9609 2.21071 10.5858 2.58579C10.2107 2.96086 10 3.46957 10 4V4C10 4.172 9.88647 4.32248 9.7237 4.3781C6.90482 5.34139 5 7.9971 5 11Z" stroke="white" stroke-width="2" stroke-linecap="round"/>
<circle cx="19" cy="6" r="6" fill="white"/>
<path d="M21.2852 9H17.3867V8.22656L19.2266 6.26562C19.4792 5.98958 19.6654 5.7487 19.7852 5.54297C19.9076 5.33724 19.9688 5.14193 19.9688 4.95703C19.9688 4.70443 19.9049 4.50651 19.7773 4.36328C19.6497 4.21745 19.4674 4.14453 19.2305 4.14453C18.9753 4.14453 18.7734 4.23307 18.625 4.41016C18.4792 4.58464 18.4062 4.8151 18.4062 5.10156H17.2734C17.2734 4.75521 17.3555 4.4388 17.5195 4.15234C17.6862 3.86589 17.9206 3.64193 18.2227 3.48047C18.5247 3.31641 18.8672 3.23438 19.25 3.23438C19.8359 3.23438 20.2904 3.375 20.6133 3.65625C20.9388 3.9375 21.1016 4.33464 21.1016 4.84766C21.1016 5.12891 21.0286 5.41536 20.8828 5.70703C20.737 5.9987 20.487 6.33854 20.1328 6.72656L18.8398 8.08984H21.2852V9Z" fill="#1D56A0"/>
</svg>
