<svg width="118" height="30" viewBox="0 0 118 30" fill="none" xmlns="http://www.w3.org/2000/svg">
<path d="M72.1146 18.5344C69.771 18.5344 68.8851 17.0347 68.7993 15.2657H76.6588V14.5378C76.6588 11.3929 74.744 9.56567 71.8359 9.56567C68.9279 9.56567 66.8916 11.4511 66.8916 14.7416C66.8916 17.6535 68.4421 20.216 72.1003 20.216C75.3656 20.216 76.6803 18.0321 77.0018 16.4087H75.0441C74.7011 17.8064 73.6151 18.5489 72.1003 18.5489L72.1146 18.5344ZM71.8574 11.1963C73.8366 11.1963 74.7868 12.4048 74.7868 13.868H68.8065C68.8065 12.4121 69.9211 11.1963 71.8574 11.1963Z" fill="#0069F7"/>
<path d="M116.035 16.3941C115.692 17.7918 114.606 18.5344 113.091 18.5344C110.748 18.5344 109.862 17.0347 109.776 15.2657H117.636V14.5378C117.636 11.3929 115.721 9.56567 112.813 9.56567C109.905 9.56567 107.868 11.4511 107.868 14.7416C107.868 17.6535 109.419 20.216 113.077 20.216C116.342 20.216 117.657 18.0321 117.979 16.4087L116.035 16.3941ZM112.827 11.1963C114.806 11.1963 115.756 12.4048 115.756 13.868H109.776C109.776 12.4121 110.891 11.1963 112.827 11.1963Z" fill="#0069F7"/>
<path d="M39.2333 9.55108C36.9112 9.55108 35.6608 10.8251 35.1964 12.3684H34.9963V9.75491H33.0386V23.7321H34.9963V17.3332H35.1964C35.6394 18.8983 36.9112 20.1723 39.2333 20.1723C42.1628 20.1723 43.9562 17.8719 43.9562 14.8435C43.9562 11.8151 42.1628 9.52197 39.2333 9.52197V9.55108ZM38.5688 18.447C36.5539 18.447 34.9963 17.3769 34.9963 14.8435C34.9963 12.3101 36.5539 11.2473 38.5688 11.2473C40.5837 11.2473 41.9985 12.3392 41.9985 14.8435C41.9985 17.3477 40.5694 18.447 38.5688 18.447Z" fill="#0069F7"/>
<path d="M60.6183 9.55108C58.3034 9.55108 57.0458 10.8251 56.5814 12.3684H56.3814V9.75491H54.4236V23.7321H56.3814V17.3332H56.5814C57.0315 18.8983 58.3034 20.1723 60.6183 20.1723C63.5478 20.1723 65.3483 17.8719 65.3483 14.8435C65.3483 11.8151 63.5478 9.52197 60.6183 9.52197V9.55108ZM59.9539 18.447C57.939 18.447 56.3814 17.3769 56.3814 14.858C56.3814 12.332 57.939 11.2691 59.9539 11.2691C61.9688 11.2691 63.3906 12.3611 63.3906 14.8653C63.3906 17.3696 61.9616 18.4688 59.9539 18.4688" fill="#0069F7"/>
<path d="M82.6107 6.68276C82.6107 5.78007 82.2249 5.22681 81.4032 5.22681H78.5023V6.95213H80.6458V18.2795H77.845V20.0121H85.433V18.2795H82.575L82.6107 6.68276Z" fill="#0069F7"/>
<path d="M48.5504 8.04416C48.7182 8.05726 48.8869 8.03488 49.0459 7.97844C49.2048 7.92201 49.3506 7.83274 49.4741 7.7162C49.5975 7.59966 49.696 7.45838 49.7634 7.30123C49.8308 7.14407 49.8656 6.97443 49.8656 6.80294C49.8656 6.63145 49.8308 6.46181 49.7634 6.30465C49.696 6.1475 49.5975 6.00624 49.4741 5.8897C49.3506 5.77316 49.2048 5.68387 49.0459 5.62744C48.8869 5.571 48.7182 5.54864 48.5504 5.56175C48.3826 5.54864 48.2139 5.571 48.055 5.62744C47.896 5.68387 47.7502 5.77316 47.6268 5.8897C47.5033 6.00624 47.4048 6.1475 47.3374 6.30465C47.27 6.46181 47.2352 6.63145 47.2352 6.80294C47.2352 6.97443 47.27 7.14407 47.3374 7.30123C47.4048 7.45838 47.5033 7.59966 47.6268 7.7162C47.7502 7.83274 47.896 7.92201 48.055 7.97844C48.2139 8.03488 48.3826 8.05726 48.5504 8.04416Z" fill="#0069F7"/>
<path d="M49.7579 10.8614C49.7579 10.0752 49.4221 9.55103 48.7219 9.55103H45.721V11.2764H47.8645V18.2649H45.0065V19.9975H52.5659V18.2649H49.7436L49.7579 10.8614Z" fill="#0069F7"/>
<path d="M90.356 8.04416C90.5238 8.05726 90.6924 8.03488 90.8514 7.97844C91.0103 7.92201 91.1561 7.83274 91.2796 7.7162C91.403 7.59966 91.5016 7.45838 91.569 7.30123C91.6363 7.14407 91.6711 6.97443 91.6711 6.80294C91.6711 6.63145 91.6363 6.46181 91.569 6.30465C91.5016 6.1475 91.403 6.00624 91.2796 5.8897C91.1561 5.77316 91.0103 5.68387 90.8514 5.62744C90.6924 5.571 90.5238 5.54864 90.356 5.56175C90.1881 5.54864 90.0194 5.571 89.8605 5.62744C89.7016 5.68387 89.5558 5.77316 89.4323 5.8897C89.3088 6.00624 89.2103 6.1475 89.1429 6.30465C89.0756 6.46181 89.0408 6.63145 89.0408 6.80294C89.0408 6.97443 89.0756 7.14407 89.1429 7.30123C89.2103 7.45838 89.3088 7.59966 89.4323 7.7162C89.5558 7.83274 89.7016 7.92201 89.8605 7.97844C90.0194 8.03488 90.1881 8.05726 90.356 8.04416Z" fill="#0069F7"/>
<path d="M91.5635 10.8614C91.5635 10.0752 91.2276 9.55103 90.5274 9.55103H87.5265V11.2764H89.67V18.2649H86.812V19.9975H94.3357V18.2649H91.5134L91.5635 10.8614Z" fill="#0069F7"/>
<path d="M102.167 9.55114C101.253 9.49973 100.353 9.79491 99.6408 10.3797C98.9283 10.9645 98.4537 11.7975 98.3084 12.7178H98.1084V9.75497H96.1506V19.9976H98.1084V15.5934C98.1084 12.8198 99.5374 11.2765 101.581 11.2765C103.274 11.2765 104.024 12.0772 104.024 14.152V19.9758H105.996V13.8462C105.996 10.9343 104.503 9.5293 102.167 9.5293" fill="#0069F7"/>
<path d="M29.4448 11.7569V9.96606L22.3998 12.8125C21.9793 12.9849 21.619 13.2815 21.3653 13.6642C21.1116 14.0469 20.9761 14.4982 20.9761 14.96C20.9761 15.4218 21.1116 15.8731 21.3653 16.2558C21.619 16.6385 21.9793 16.9351 22.3998 17.1075L29.4448 20.0194V18.2432L21.6853 15.0474V14.8581L29.4448 11.7569Z" fill="#0069F7"/>
<path d="M8.47398 15.0328C8.47453 14.5702 8.33858 14.118 8.08376 13.7351C7.82894 13.3521 7.46701 13.0561 7.04498 12.8853L0 9.97339V11.7497L7.75948 14.9455V15.1348L0 18.2432V20.0341L7.04498 17.1877C7.46758 17.0177 7.83008 16.7219 8.08503 16.3387C8.33997 15.9556 8.47551 15.503 8.47398 15.0401" fill="#A6A8AB"/>
<path d="M19.1629 19.4735C18.8409 19.7999 18.6229 20.2176 18.5375 20.6722C18.4521 21.1267 18.5032 21.597 18.6842 22.0214L21.6423 29.1556L22.8712 27.9035L19.6059 20.0923L19.7345 19.954L27.3797 23.3464L28.6158 22.087L21.6637 19.0149C21.2462 18.8324 20.7845 18.782 20.3385 18.8702C19.8926 18.9585 19.483 19.1814 19.1629 19.5099" fill="#A6A8AB"/>
<path d="M8.67403 11.2036C9.27538 11.2003 9.85091 10.9542 10.2745 10.5193C10.5983 10.194 10.8175 9.77623 10.903 9.32122C10.9885 8.8662 10.9362 8.39546 10.7532 7.97136L7.80231 0.837158L6.56624 2.08928L9.83867 9.93689L9.70291 10.0752L2.06488 6.68283L0.821655 7.94224L7.77375 11.0143C8.0588 11.1368 8.36467 11.2011 8.67403 11.2036Z" fill="#A6A8AB"/>
<path d="M14.7544 21.359C14.2943 21.351 13.8426 21.4861 13.4597 21.7462C13.0768 22.0063 12.7807 22.3791 12.6109 22.8149L9.75293 29.9928H11.4963L14.6973 22.0942H14.883L17.934 29.9928H19.6916L16.8408 22.8222C16.674 22.3916 16.3836 22.0224 16.0076 21.7626C15.6315 21.5028 15.1873 21.3647 14.733 21.3663" fill="#A6A8AB"/>
<path d="M14.6973 8.63384C15.1516 8.63539 15.5958 8.49726 15.9719 8.2375C16.3479 7.97775 16.6383 7.60846 16.8051 7.17788L19.6631 0H17.9125L14.7759 7.89857H14.5901L11.5392 0H9.78149L12.5752 7.17059C12.7442 7.60702 13.04 7.98038 13.4231 8.24061C13.8063 8.50085 14.2584 8.63552 14.7187 8.62655" fill="#A6A8AB"/>
<path d="M10.3245 19.5243C10.0042 19.1961 9.59421 18.974 9.14806 18.887C8.70192 18.8 8.24038 18.8521 7.82377 19.0365L0.821655 22.0504L2.05058 23.3025L9.75293 19.9683L9.88869 20.1066L6.55908 27.896L7.80231 29.1554L10.8104 22.0722C10.9895 21.6468 11.039 21.1764 10.9524 20.722C10.8657 20.2677 10.647 19.8503 10.3245 19.5243Z" fill="#A6A8AB"/>
<path d="M19.113 10.4683C19.5373 10.9012 20.113 11.1447 20.7135 11.1453C21.0232 11.1464 21.3298 11.082 21.6138 10.9561L28.6159 7.94224L27.387 6.69011L19.6989 10.0243L19.5631 9.88595L22.8927 2.09657L21.6566 0.837158L18.6415 7.9204C18.4623 8.34576 18.4128 8.81619 18.4995 9.27056C18.5861 9.72494 18.8049 10.1423 19.1273 10.4683" fill="#A6A8AB"/>
</svg>
